<?xml version="1.0" standalone="no"?>
<!DOCTYPE svg PUBLIC "-//W3C//DTD SVG 20010904//EN"
 "http://www.w3.org/TR/2001/REC-SVG-20010904/DTD/svg10.dtd">
<svg version="1.0" xmlns="http://www.w3.org/2000/svg"
 width="1376.000000pt" height="1376.000000pt" viewBox="0 0 1376.000000 1376.000000"
 preserveAspectRatio="xMidYMid meet">
<metadata>
Created by potrace 1.11, written by Peter Selinger 2001-2013
</metadata>
<g transform="translate(0.000000,1376.000000) scale(0.100000,-0.100000)"
fill="#000000" stroke="none">
<path d="M2149 11889 c-172 -18 -402 -88 -558 -170 -135 -71 -239 -149 -365
-275 -187 -186 -291 -355 -370 -595 -59 -180 -76 -287 -76 -479 0 -184 15
-287 70 -465 l39 -126 -44 -102 c-68 -159 -190 -522 -250 -739 -116 -422 -179
-761 -233 -1248 -27 -246 -24 -1029 6 -1320 12 -118 26 -240 31 -270 5 -30 22
-131 37 -225 79 -502 237 -1043 457 -1565 78 -185 302 -630 392 -780 263 -438
523 -794 816 -1119 119 -132 525 -531 633 -621 480 -405 890 -675 1434 -945
361 -180 814 -354 1127 -434 39 -10 102 -27 140 -38 180 -53 576 -133 754
-153 51 -6 112 -15 135 -19 22 -5 145 -17 271 -26 189 -14 308 -16 670 -12
242 4 467 11 500 17 33 6 103 15 155 20 104 10 261 32 355 50 184 35 278 54
350 72 44 11 100 24 125 30 100 21 438 123 560 168 41 16 95 34 120 40 25 7
62 21 83 31 20 11 70 31 110 45 39 15 86 35 103 45 18 11 56 28 85 38 50 18
156 67 274 128 28 14 86 44 130 66 44 22 92 48 107 59 14 10 55 32 90 50 35
17 88 48 118 68 30 20 71 45 90 55 19 9 60 36 90 59 30 23 75 53 100 65 25 13
65 40 90 60 25 21 70 53 100 73 30 19 77 53 103 76 27 23 52 42 57 42 5 0 35
24 67 53 32 30 77 66 101 81 24 15 69 54 102 86 32 33 63 60 68 60 6 0 46 35
89 78 43 42 97 93 118 113 34 30 113 108 161 159 8 8 47 49 87 90 40 41 83 91
97 110 14 19 55 68 92 108 38 40 68 78 68 83 0 5 25 35 56 66 30 31 64 73 74
92 10 20 36 56 57 81 22 25 57 72 78 105 21 33 51 75 66 93 16 18 40 54 53 80
14 27 41 68 62 93 20 24 47 67 60 95 12 27 34 64 48 81 15 18 40 62 57 99 17
37 44 84 60 103 16 20 40 64 53 98 13 34 36 78 52 98 15 20 33 59 40 87 8 28
29 74 49 102 19 28 39 72 43 97 5 25 25 72 45 105 20 32 41 83 47 111 5 29 22
71 37 94 19 29 28 57 31 99 l4 59 -51 -20 c-90 -34 -160 -21 -224 40 -21 19
-43 53 -49 73 -6 21 -15 38 -19 38 -25 0 -89 -108 -89 -150 0 -12 -13 -38 -30
-58 -16 -21 -40 -65 -53 -98 -13 -33 -38 -79 -55 -103 -17 -23 -36 -59 -43
-79 -6 -20 -31 -63 -55 -95 -24 -32 -48 -73 -53 -92 -5 -19 -27 -56 -49 -82
-22 -26 -47 -64 -55 -83 -8 -19 -31 -55 -51 -79 -21 -25 -46 -62 -57 -83 -10
-20 -39 -60 -64 -88 -24 -28 -52 -64 -60 -80 -8 -16 -40 -57 -70 -91 -30 -34
-55 -66 -55 -71 0 -5 -28 -40 -62 -78 -35 -38 -94 -105 -133 -150 -94 -107
-358 -373 -420 -422 -27 -22 -60 -53 -73 -69 -13 -16 -45 -43 -70 -61 -26 -17
-72 -54 -103 -82 -31 -28 -74 -63 -95 -79 -22 -15 -58 -42 -81 -60 -23 -17
-61 -45 -84 -62 -23 -16 -80 -58 -128 -92 -47 -34 -108 -75 -135 -90 -26 -15
-74 -47 -105 -69 -31 -23 -67 -45 -81 -49 -14 -4 -50 -24 -80 -44 -30 -20
-149 -83 -265 -140 -296 -145 -302 -148 -377 -175 -36 -14 -77 -31 -90 -39
-13 -9 -43 -21 -68 -27 -25 -7 -76 -25 -114 -41 -37 -16 -75 -29 -83 -29 -8 0
-49 -13 -91 -29 -42 -16 -131 -43 -197 -61 -66 -17 -149 -40 -185 -50 -66 -19
-441 -95 -515 -104 -22 -3 -67 -9 -100 -15 -127 -21 -410 -42 -645 -48 -389
-9 -857 25 -1130 82 -36 8 -81 16 -100 20 -129 22 -493 116 -650 167 -425 137
-900 360 -1267 593 -361 229 -645 457 -953 765 -236 235 -339 353 -510 580
-545 724 -900 1558 -1034 2430 -56 367 -69 546 -63 895 7 352 15 468 53 715
48 313 112 586 200 862 47 145 187 506 230 590 22 44 27 47 81 58 97 20 283
79 360 115 381 176 674 505 808 907 60 183 70 249 70 478 -1 238 -9 293 -71
480 -51 153 -117 285 -201 403 -77 107 -247 278 -356 356 -217 156 -485 255
-762 281 -122 11 -165 11 -276 -1z"/>
<path d="M7146 8490 c-138 -25 -345 -94 -479 -160 -373 -181 -664 -492 -838
-893 -86 -201 -126 -376 -136 -607 -13 -301 49 -583 186 -855 272 -538 784
-891 1386 -956 130 -14 351 -7 480 16 626 108 1149 560 1359 1174 65 187 76
268 76 544 0 282 -9 354 -70 539 -201 610 -699 1057 -1325 1188 -153 32 -490
37 -639 10z"/>
</g>
</svg>
